<svg xmlns="http://www.w3.org/2000/svg" xmlns:xlink="http://www.w3.org/1999/xlink" viewBox="0 0 96.09516 24.05183">
  <defs>
    <style>
      .a {
        fill: none;
      }

      .b {
        clip-path: url(#a);
      }

      .c {
        fill: #00467f;
      }

      .d {
        clip-path: url(#c);
      }
    </style>
    <clipPath id="a">
      <rect class="a" x="-35.43284" y="-738.68657" width="612" height="792"/>
    </clipPath>
    <clipPath id="c">
      <rect class="a" x="0.56716" y="0.22243" width="95.528" height="23.85"/>
    </clipPath>
  </defs>
  <title>FINRA logo</title>
  <g class="b">
    <g class="b">
      <rect class="c" x="21.01316" y="0.22243" width="4.195" height="23.829"/>
      <g class="d">
        <path class="c" d="M76.42686,19.98373a2.22166,2.22166,0,0,1-2.441-2.267c0-1.154.726-2.078,2.449-2.55l8.979-2.468v7.285Zm13.248-13.638c0-3.039-1.929-6.123-6.625-6.123h-8.849c-1.438,0-1.938.593-2.069,1.818-.055.502-.24,2.249-.24,2.249h10.445c2.213,0,3.077,1.04,3.077,2.713v1.386l-8.831,2.402c-4.722,1.297-6.997,3.348-6.997,6.937a6.26225,6.26225,0,0,0,6.576,6.324h13.513Z"/>
        <path class="c" d="M58.87606,7.00313c0-1.673.865-2.714,3.077-2.714h7.075s-.187-1.747-.241-2.249c-.132-1.224-.632-1.818-2.069-1.818h-5.478c-4.696,0-6.624,3.085-6.624,6.124v17.706h4.26Z"/>
        <path class="c" d="M42.44637,4.28923c2.213,0,3.077,1.041,3.077,2.714v17.048h4.261V6.34524c0-3.038-1.929-6.123-6.625-6.123h-12.981v23.829h4.196V4.28923Z"/>
        <path class="c" d="M15.26966,11.52183c-.131-1.226-.632-1.818-2.069-1.818h-8.373v-2.701c0-1.673.864-2.714,3.076-2.714h10.075s-.187-1.747-.24-2.248c-.133-1.225-.633-1.817-2.07-1.817h-8.476c-4.698,0-6.626,3.083-6.626,6.122v17.706h4.261v-10.283h10.683s-.187-1.746-.241-2.247"/>
        <path class="c" d="M94.19726,20.27444a1.95278,1.95278,0,0,1,.934.246,1.75128,1.75128,0,0,1,.71.702,1.90587,1.90587,0,0,1,.003,1.896,1.75035,1.75035,0,0,1-.701.703,1.9063,1.9063,0,0,1-1.891,0,1.76773,1.76773,0,0,1-.703-.703,1.89938,1.89938,0,0,1,.003-1.896,1.74643,1.74643,0,0,1,.713-.702,1.94219,1.94219,0,0,1,.932-.246m0,.315a1.62569,1.62569,0,0,0-.779.205,1.48557,1.48557,0,0,0-.593.586,1.60986,1.60986,0,0,0-.213.795,1.59162,1.59162,0,0,0,.21.786,1.49035,1.49035,0,0,0,.586.587,1.5853,1.5853,0,0,0,1.577,0,1.47994,1.47994,0,0,0,.587-.587,1.58632,1.58632,0,0,0-.004-1.581,1.47322,1.47322,0,0,0-.593-.586,1.63076,1.63076,0,0,0-.778-.205m-.832,2.635v-2.043h.701a1.70268,1.70268,0,0,1,.521.056.49559.49559,0,0,1,.257.198.51733.51733,0,0,1,.095.299.54254.54254,0,0,1-.159.39.63454.63454,0,0,1-.425.186.51407.51407,0,0,1,.174.109,2.3464,2.3464,0,0,1,.303.405l.247.4h-.401l-.182-.322a1.62245,1.62245,0,0,0-.345-.476.42065.42065,0,0,0-.263-.07h-.194v.868Zm.329-1.15h.399a.64181.64181,0,0,0,.393-.087.29157.29157,0,0,0,.053-.388.28127.28127,0,0,0-.14-.106,1.00252,1.00252,0,0,0-.33-.036h-.375Z"/>
      </g>
    </g>
  </g>
</svg>
