<?xml version="1.0" encoding="UTF-8"?>
<svg id="SVGRoot" width="500" height="336.86" version="1.1" viewBox="0 0 500.00021 336.85794" xmlns="http://www.w3.org/2000/svg" xmlns:cc="http://creativecommons.org/ns#" xmlns:dc="http://purl.org/dc/elements/1.1/" xmlns:rdf="http://www.w3.org/1999/02/22-rdf-syntax-ns#"><metadata><rdf:RDF><cc:Work rdf:about=""><dc:format>image/svg+xml</dc:format><dc:type rdf:resource="http://purl.org/dc/dcmitype/StillImage"/><dc:title/></cc:Work></rdf:RDF></metadata><g transform="translate(-188.36 -49.509)" fill="#001f68" fill-opacity=".90196"><g><path d="m412.01 49.928c-3.781-0.10251-9.6922 0.41127-12.633 2.7753 4.8487 2.4346 7.7217 6.6015 7.7217 10.038 0 3.4245-2.6402 7.4229-7.3565 7.4229-2.0412 0-3.4252 0.59304-5.1905-1.4945l-28.326-0.09592c-1.8098 1.3725-5.4146 2.5158-7.7152 1.2888-2.1084-1.1246-3.3332-4.2196-3.0747-6.6472 0.44926-4.2181 4.5158-8.054 7.6549-10.166-1.822-1.8327-8.7947-4.6497-15.416-3.083-7.9045 1.8705-21.651 10.264-22.118 23.42-0.24576 6.9145 0.69503 11.087 6.0781 18.741-5.1785 3.3212-6.7005 12.662-5.3168 17.264 4.3008-0.43884 8.4414-0.57669 13.862-3.783-2.6434 10.625-9.0984 26.503-15.721 44.435-4.1963 11.362-6.7363 19.411-7.3401 26.712-1.1223 13.573 3.2699 22.212 7.8662 28.181-4.5442 5.8241-3.708 25.088 0.13563 35.775 4.7719 13.268 1.9206 34.459-3.0724 50.488h28.208c-0.68032-2.9405-0.012-10.564 0.64906-15.995 0.65565-5.417 4.32-18.917 5.1896-24.171 4.9604 1.3139 10.216 1.3844 14.42-0.3006 4.2096 12.201 23.871 22.572 42.069 22.273 2.4223-7.3845 3.3551-20.786 3.1286-26.841 9.4533-5.9741 11.92-2.7826 11.843 2.9724 0 0 4.5249 0.74173 9.9692-0.39994 1.3486 9.9178-8.1992 31.645-18.174 42.462h32.078c5.0642-12.449 12.416-25.968 21.21-35.38 6.8297 9.7944 14.97 10.152 24.204 6.521-3.0986 5.3242-11.56 21.761-16.376 28.861h37.702c1.8186-12.701 12.82-37.396 21.688-50.497-11.651-4.3176-20.065-17.493-22.986-24.451-2.2798-5.4286-7.8485-16.211-14.446-25.449 23.895-0.7155 38.535-8.5478 38.535-25.177 0-10.706-2.6656-18.799-12.054-26.189-15.538-12.231-40.261-16.354-53.588-20.634-15.434-4.9571-21.289-11.776-20.272-18.935 1.6532-11.631 9.3016-14.315 15.495-14.315 5.0049 0 12.446 3.3771 18.342 6.5205 5.9129 3.1528 12.419 7.5942 22.41 7.1495 11.479-0.51093 29.108-18.433 30.742-30.607 0 0-46.243 0.08529-58.052 0.08529-21.289 0-38.938 12.449-39.166 27.337-0.48782 31.876 36.616 34.076 57.065 40.921 15.911 5.3261 30.202 15.122 30.037 26.55-0.10055 6.9644-6.6603 13.648-14.813 15.848-19.284 5.203-39.23-0.17526-58.377-9.175-15.496-7.284-21.875-21.352-27.065-34.741-2.0296-5.2122-10.064-21.88-12.462-25.225 4.3298 0.4676 8.9504 0.20153 13.07-1.1714-0.70402-4.8894-2.7336-10.329-6.217-13.846 6.7192-5.2238 7.0011-15.86 6.3639-22.31-1.2633-12.787-8.9163-22.653-20.407-22.965zm4.1807 14.887c4.3258 2.9648 5.47 6.3739 5.7426 10.435 0.31484 4.6912-2.0997 10.31-6.0071 12.925-8.7005 5.8226-18.402 1.019-23.779 4.91-4.5466 3.2896-7.0613 9.2149-7.0613 13.954 0 4.7281 0.92859 6.76 1.4966 8.2464 0.55127 1.4424 0.72185 3.3696-2.9376 4.8131-3.2374 1.277-6.6805 1.7045-9.4144 0.72351-1.5911-0.56454-3.5509-1.4309-5.3846-1.4309-1.7875 0-4.1404 1.7415-4.1404 4.1056 0 3.1482 2.0865 3.1418 4.0823 3.4284 2.4362 0.34991 3.4627-1.3223 4.8888-1.6951 2.634-0.68845 4.9939-0.76255 7.1942-0.0514 2.2318 0.72065 5.8971 1.7549 7.4887 2.4479 1.5793 0.64559 3.3747 0.6955 4.8895-0.13121 1.1941-0.65158 2.6754-1.71 3.055-4.2279 0.38547-2.5575-0.35003-5.1123-2.419-7.0826 2.4799-2.3244 6.0267-7.4629 10.68-10.079 5.8817 8.569 20.523 30.68 22.198 47.2 0.97347 9.6036-0.35794 17.235-3.3672 23.306-5.6263 11.351-13.659 15.348-24.524 23.03-9.3719 6.6264-16.262 17.96-21.296 26.379-3.9262 6.5661-5.3036 9.9134-8.0364 12.416-2.7111 2.468-8.0772 2.1002-10.387-0.11852-2.4175-2.3214-6.4328-9.3489-12.85-18.662-6.7142-9.7433-14.478-20.795-17.935-27.3-4.8133-9.057-3.6501-15.404-0.53641-18.286 3.1831-2.9062 8.6425-2.6323 14.593 5.2096 2.0414 2.7105 5.4244 8.5188 6.0935 12.359 2.4625 1.3572 4.6025 0.77824 6.6265-0.49595-0.77596-13.262-10.877-22.938-16.394-27.225-3.1004-2.4088-6.0764-4.8102-8.097-6.3089 7.8686-21.776 16.35-43.138 20.803-64.672-7.9128-2.1951-15.907-7.8109-15.995-18.223-0.0563-6.7145 4.6223-11.924 10.32-12.593-2.4798 4.4979-0.42317 9.2944 0.9955 12.247 1.3151 2.8256 6.9554 7.4098 11.038 7.4098 4.0705 0 7.1552-1.9435 8.101-4.0547h24.807c4.9161 2.3381 7.7792 3.7697 12.617 3.4253 6.2578-0.4456 9.329-3.2943 11.243-7.1311 1.2376-3.0873 1.9249-6.4596 1.6095-9.2027zm80.668 12.417h27.905c0.5302 4.2363-7.9802 11.829-14.784 11.829-6.8153 0-12.039-3.0843-14.784-4.8836-2.7206-1.8102-6.95-6.9457 1.6642-6.9457zm-139.22 17.823c-0.2539 6.2156 2.5514 9.8484 9.2261 10.489 0.25294-6.2049-3.6044-10.094-9.2261-10.489zm43.654-0.19172c2.664 1.7488-1.5318 11.537-9.3548 11.66-0.64858-8.4463 6.2651-13.688 9.3548-11.66zm-22.294 33.902c-4.5093 0-7.472 0.34715-10.043 2.9189-2.4218 2.4209-0.62286 4.1054 0.84167 3.3902 2.7566-1.3606 5.4422-1.1419 9.2014-1.1419 3.7128 0 5.7787-0.21883 8.5705 1.1419 1.4643 0.71527 3.3108-0.96928 0.85329-3.3902-2.5941-2.5717-4.9489-2.9189-9.4238-2.9189zm56.815 35.549c3.8635 6.078 17.82 14.839 23.482 16.65-7.496 2.733-12.105 14.808-12.105 24.034 0 9.2379 7.7767 20.937 13.023 26.334l-19.086 3.3836c-0.23055-2.9059-1.8186-6.9268-0.90667-8.7036l-18.105 5.7146c1.1299-10.598-4.4248-22.592-16.906-24.549 7.8655-5.3423 17.374-11.488 22.961-19.417 4.9957-7.0903 8.3342-17.368 7.642-23.446zm39.001 22.851c14.554 0 24.635 17.038 27.355 22.644 2.7349 5.638 8.3481 15.293 11.077 20.49 2.7142 5.1698 6.4751 10.154 11.742 15.198-4.4442 8.7035-12.475 27.585-15.088 36.8h-12.46s6.2591-10.383 9.9498-19.139c5.2484-12.452 3.9484-17.833-6.6191-23.018-4.3662-2.1426-16.239-5.5281-27.053-12.445-9.8547-6.3032-16.813-15.505-16.813-24.511 0-9.0292 7.0117-16.018 17.91-16.018zm-142.52 29.603c1.1295 0 5.5016 6.6349 7.5647 9.3215 1.8118 2.3877 6.5624 10.61 6.5624 18.509 0 7.8766-5.4182 34.02-6.6745 37.733h-6.584c2.9292-10.241 5.3672-23.473 1.7231-37.089-3.2037-11.97-3.5609-20.239-3.5609-24.068 0-1.7639-0.76135-4.4069 0.96928-4.4069zm73.695 2.4169c4.5103 1.1643 6.5328 5.0703 6.4032 8.8681-0.28491 8.3471-9.3478 10.786-12.052 11.679-2.7381 0.90489-11.844 2.3293-14.485 6.6081 2.9295 5.9741 13.939 3.6581 19.001 2.4472 0.98042 3.9364 0.94043 8.4175-0.23882 13.647-4.5783-0.89974-12.106-3.2202-17.12-6.755-3.613-2.5469-8.8823-4.4698-8.7294-9.9827 0.13538-4.8844 3.544-11.678 7.6034-15.942 5.1218-5.3801 11.154-12.755 19.618-10.571zm61.52 24.074c-8.433 13.271-15.233 25.958-22.209 39.348h-8.1763c3.2513-5.3394 12.145-23.425 11.318-35.526 4.5434-2.0528 13.611-3.6265 19.067-3.8223zm11.854 1.1884c4.2902 0.91111 13.128 2.7146 15.607 5.4248-1.3495 3.2523-3.1304 5.1752-8.5714 4.7085-5.457-0.46795-6.8163-6.0856-7.0353-10.133z" opacity=".974"/><path d="m188.46 307.94-0.10309 10.91c2.1868 0.047 2.7008 2.984 2.7008 5.4225v30.118c0 2.5832-0.92608 4.4102-2.5981 4.3486l4.5e-4 11.202 18.991-7e-3v-11.202c-1.2127 0-2.0422-2.2331-2.0422-4.3424v-18.243h0.51053l7.8727 33.728h8.2444l8.3694-33.728h0.53057v18.252c0 2.2572-0.44673 4.3335-2.0422 4.3336v11.208l22.251 7e-3 -9e-3 -11.205c-1.3819 0.0458-1.9436-2.1176-1.8542-4.4052l-0.0934-30.063c0.0255-2.452-8e-3 -5.3557 2.0005-5.3558l-0.0281-10.977h-23.55l-6.354 25.834h-0.48568l-6.39-25.834z" opacity=".974"/><path d="m503.52 324.31v10.539c2.6447 1.1604 2.432 3.1722 3.2228 5.4603l10.742 31.082c-1.1341 3.2867-3.165 4.0283-6.5286 4.0117v10.166c2.8828 0.44287 10.349 1.7924 14.66-0.51439 4.4369-2.3738 6.6514-5.0137 8.8121-12.257l9.6737-32.429c0.63808-2.1391 0.52901-4.8142 2.8527-5.6428l-0.10343-10.415h-18.172v10.539c1.6996-0.0404 1.7626 0.81715 1.9988 2.1749l-3.7436 13.549h-0.20037l-3.9606-12.904c-0.46377-1.511 0.63928-2.9118 2.1609-2.9421l-0.10343-10.415z" opacity=".974"/><path d="m621.61 323.38c-4.7842-0.064-11.617 0.17174-15.728 3.6449-2.9902 2.5264-4.537 5.8954-4.5242 10.837l0.0441 17.129c0.0189 7.3868 2.091 9.726 5.6741 12.64 3.8421 3.1246 14.509 3.1941 14.509 3.1941 6.9725 0.50829 15.977-2.7611 19.075-6.5391l-0.0624-13.582h-15.699c0 4.727 0.51278 9.6997-3.2226 9.6997-2.3325-7e-5 -3.4602-1.238-3.4682-5.428l-0.0259-13.591c-9e-3 -4.9179 0.10216-7.4762 3.404-7.4862 3.2478-9e-3 3.3127 3.4567 3.3127 7.3541l15.632 0.0209 0.0676-11.707c-2.7778-3.0563-11.092-6.0813-18.989-6.1866z" opacity=".974"/><path d="m456.59 307.97-0.10205 10.91c2.1867 0.047 2.5042 2.9836 2.5042 5.4221v30.119c0 2.5832-0.73007 4.4102-2.4021 4.3486v11.201h45.555v-29.891l-16.659-0.0125 0.0359 13.134c0.0116 3.9138-4.3574 3.9644-8.2595 3.9644v-32.863c0-2.4385 0.31746-5.3748 2.5042-5.422l-0.10343-10.911z" opacity=".974"/><path d="m325.89 323.47c-1.0011 0.032-2.2292 0.15507-3.1386 0.51954-2.1173 0.84844-3.2539 2.8362-4.3243 4.2644v-3.9708h-18.02v10.538c1.6721-0.0574 2.1405 1.643 2.1405 4.0474v15.615c0 2.2696-0.0555 5.0032-2.2426 5.0468l0.10204 10.417h20.984l0.10343-10.417c-2.1868-0.0438-2.2439-2.7771-2.2439-5.0468v-8.6347c0-2.3269 0.76923-4.3928 2.3473-5.7169 1.586-1.3308 4.3959-1.3171 6.0679-1.2598v-15.373s-0.77304-0.0601-1.7741-0.0281z" opacity=".974"/><path d="m366.51 324.24v10.538c1.6721-0.0575 2.1417 1.643 2.1417 4.0474v15.615c0 2.2696-0.0569 5.0032-2.2439 5.0468l0.10332 10.415h20.591l0.10343-10.415c-2.1868-0.0438-2.2439-2.7772-2.2439-5.0468l0.0497-30.2z" opacity=".974"/><path d="m392.29 307.96v10.539c1.6721-0.0574 2.1417 1.643 2.1417 4.0474v31.953c0 2.2696-0.0569 5.0032-2.2439 5.0468l0.10343 10.415h20.591l0.10343-10.415c-2.1868-0.0438-2.2439-2.7772-2.2439-5.0468l0.0497-46.539z" opacity=".974"/></g><path d="m385.26 314.26a9.1899 7.0839 0 0 1 -9.1899 7.0839 9.1899 7.0839 0 0 1 -9.1899 -7.0839 9.1899 7.0839 0 0 1 9.1899 -7.0839 9.1899 7.0839 0 0 1 9.1899 7.0839z" fill-rule="evenodd" opacity=".974" stroke-width=".65351"/><g><path d="m578.68 324.11c-2.8049 0.34923-5.2819 1.9771-7.829 3.2576l6e-3 -3.0744h-18.368v10.538c1.672-0.0575 2.1417 1.643 2.1417 4.0474v15.615c0 2.2696-0.0567 5.0032-2.2439 5.0468l0.10343 10.415h20.59l0.10343-10.415c-2.1868-0.0438-2.2439-2.7772-2.2439-5.0468l0.0297-18.474c2.4302-0.11072 4.0525-0.18704 5.4508 1.0222 1.3506 1.1679 1.7412 2.3965 1.7365 5.0673l-0.0372 20.589c-6e-3 2.4196 0.90236 7.2587 0.90236 7.2587l7.888-7e-3 9.8928 7e-3v-10.539c-1.672 0.0574-1.9506-1.643-1.9448-4.0474l0.0498-20.49c8e-3 -3.5147-1.9506-7.0954-4.7293-9.0725-3.157-2.2464-7.6543-2.1764-11.499-1.6978z" opacity=".974"/><path d="m670.89 323.76c-2.8874 0.20781-5.674 1.5192-8.2209 2.7997l6e-3 -18.497h-17.976v10.538c1.6721-0.0574 2.1417 1.643 2.1417 4.0474v31.822c0 2.2697-0.0567 5.0032-2.2439 5.0468l0.10344 10.415h20.263l0.10344-10.415c-2.1868-0.0438-2.3744-2.7771-2.3744-5.0468l0.0297-18.474c2.4302-0.11071 4.3873-0.27447 5.9083 1.0222 1.3588 1.1585 1.7413 2.3965 1.7365 5.0674l-0.0372 20.589c-6e-3 2.4196 0.90237 7.2588 0.90237 7.2588l7.888-7e-3 9.239 7e-3v-10.539c-1.672 0.0576-1.9506-1.643-1.9448-4.0474l0.0498-20.49c9e-3 -3.5147-1.9885-7.0429-4.7293-9.0725-2.9555-2.1886-7.1774-2.2883-10.846-2.0242z" opacity=".974"/><path d="m418.7 307.96v10.539c1.672-0.0574 2.1417 1.643 2.1417 4.0474v31.953c0 2.2696-0.0569 5.0032-2.2439 5.0468l0.10343 10.415h20.591l0.10343-10.415c-2.1868-0.0438-2.2439-2.7772-2.2439-5.0468l0.0498-46.539z" opacity=".974"/><path d="m274.7 323.71c-4.6864-0.0386-10.508 0.35597-14.218 3.4207-3.0917 2.5543-4.6575 6.1562-4.6447 11.098l0.0444 17.129c0.0189 7.3868 1.7133 9.4694 5.1936 12.188 3.63 2.8358 10.467 3.471 15.527 3.3837 7.1578-0.12344 16.041-2.6636 19.583-6.0807l-0.0628-11.033h-16.574c-0.0202 3.1024-0.0209 6.7745-3.2433 6.6933-2.6641-0.0671-3.5534-1.7891-3.5598-5.1667l-9e-3 -4.7622 23.448 0.0125 0.0431-11.24c0.015-4.0281-0.58573-8.5388-3.4041-11.269-4.0144-3.889-9.4116-4.1539-16.197-4.3371-0.6137-0.0163-1.2591-0.0313-1.9286-0.0372zm1.5814 10.229c3.2486-7e-3 3.248 2.5893 3.3773 6.761l-6.9384 7e-3c-7e-3 -4.1049 0.17175-6.7612 3.5611-6.7661z" opacity=".974"/><path d="m358.89 323.47c-1.0011 0.032-2.2292 0.15507-3.1387 0.51954-2.1173 0.84844-3.2539 2.8362-4.3243 4.2644v-3.9708h-18.02v10.538c1.6721-0.0574 2.1405 1.643 2.1405 4.0474v15.615c0 2.2696-0.0555 5.0032-2.2426 5.0468l0.10204 10.417h20.984l0.10344-10.417c-2.1868-0.0438-2.2439-2.7771-2.2439-5.0468v-8.6347c0-2.3269 0.76925-4.3928 2.3473-5.7169 1.586-1.3308 4.3959-1.3171 6.0679-1.2598v-15.373s-0.77304-0.0601-1.7742-0.0281z" opacity=".974"/></g></g></svg>
